# xmcd CD database file generated by Grip 2.94
# 
# Track frame offsets:
#       150
#       13717
#       32806
#       52495
#       72735
#       99147
#       118162
#       138089
#       159286
#       182135
#       197337
#       214149
#       232544
#       254543
#       271233
#       280237
#       303822
#       320731
# 
# Disc length: 4448 seconds
# 
# Revision: 3
# Processed by: cddbd v1.4b41PL1 Copyright (c) Steve Scherf et al.
# Submitted via: Grip 2.94
# 
DISCID=00115e12
DTITLE=Sonny Terry and Brownie McGhee - Backwater Blues
DYEAR=1900
DGENRE=
TTITLE0=Climbin' on Top of the Hill
TTITLE1=Louise
TTITLE2=My Father's Words
TTITLE3=Backwater Blues
TTITLE4=Wine Headed Woman
TTITLE5=Careless Love
TTITLE6=Playing with the Blues
TTITLE7=I Can't Sleep at Night
TTITLE8=My Baby's Leavin'
TTITLE9=Lose Your Money
TTITLE10=Jet Plane Blues
TTITLE11=Rainy Day
TTITLE12=I'm a Stranger
TTITLE13=Women on My String
TTITLE14=One Scotch, One Bourbon, One Beer
TTITLE15=Key to the Highway
TTITLE16=You'd Better Mind
TTITLE17=Walk On
EXTD=
EXTT0=
EXTT1=
EXTT2=
EXTT3=
EXTT4=
EXTT5=
EXTT6=
EXTT7=
EXTT8=
EXTT9=
EXTT10=
EXTT11=
EXTT12=
EXTT13=
EXTT14=
EXTT15=
EXTT16=
EXTT17=
PLAYORDER=
